<?xml version="1.0" encoding="UTF-8"?>
<svg enable-background="new 0 0 595.28 841.89" viewBox="0 0 595.28 841.89" xmlns="http://www.w3.org/2000/svg">
 <defs>
  <linearGradient id="g" x2="0" y1="447.27" y2="367.48" gradientUnits="userSpaceOnUse">
   <stop stop-color="#8e7d00" offset="0"/>
   <stop stop-color="#8f7e00" offset=".0017"/>
   <stop stop-color="#b9a100" offset=".0602"/>
   <stop stop-color="#dabc00" offset=".1153"/>
   <stop stop-color="#f1ce00" offset=".1656"/>
   <stop stop-color="#fed900" offset=".2094"/>
   <stop stop-color="#fd0" offset=".2418"/>
   <stop stop-color="#fff265" offset=".8956"/>
  </linearGradient>
  <linearGradient id="b" x2="0" y1="367.59" y2="335.13" gradientUnits="userSpaceOnUse">
   <stop stop-color="#3c2803" offset=".022"/>
   <stop stop-color="#624314" offset=".2033"/>
   <stop stop-color="#9f834a" offset=".6099"/>
  </linearGradient>
  <linearGradient id="f" x1="70.544" x2="107.4" gradientUnits="userSpaceOnUse">
   <stop stop-color="#9f834a" offset=".309"/>
   <stop stop-color="#b79764" offset=".6067"/>
   <stop stop-color="#af905b" offset=".7332"/>
   <stop stop-color="#9f834a" offset=".9066"/>
  </linearGradient>
  <linearGradient id="a" x2="0" y1="475.37" y2="447.27" gradientUnits="userSpaceOnUse">
   <stop stop-color="#fff" offset=".1703"/>
   <stop stop-color="#edeada" offset=".6538"/>
   <stop stop-color="#e9e7d6" offset=".7062"/>
   <stop stop-color="#dddcc9" offset=".7638"/>
   <stop stop-color="#c8c9b5" offset=".824"/>
   <stop stop-color="#abae99" offset=".8859"/>
   <stop stop-color="#878c76" offset=".9484"/>
   <stop stop-color="#636a54" offset="1"/>
  </linearGradient>
  <linearGradient id="d" x2="0" y1="447.27" y2="367.48" gradientUnits="userSpaceOnUse">
   <stop stop-color="#7f0f00" offset="0"/>
   <stop stop-color="#800f00" offset=".0017"/>
   <stop stop-color="#a41008" offset=".0602"/>
   <stop stop-color="#c00d0d" offset=".1153"/>
   <stop stop-color="#d30a11" offset=".1656"/>
   <stop stop-color="#df0713" offset=".2094"/>
   <stop stop-color="#e30613" offset=".2418"/>
   <stop stop-color="#e4003a" offset=".8956"/>
  </linearGradient>
  <linearGradient id="c" x1="207.5" x2="244.35" gradientUnits="userSpaceOnUse">
   <stop stop-color="#9f834a" offset=".309"/>
   <stop stop-color="#b79764" offset=".6067"/>
   <stop stop-color="#af905b" offset=".7332"/>
   <stop stop-color="#9f834a" offset=".9066"/>
  </linearGradient>
  <linearGradient id="q" x2="0" y1="447.27" y2="367.48" gradientUnits="userSpaceOnUse">
   <stop stop-color="#305f1b" offset="0"/>
   <stop stop-color="#30601b" offset=".0017"/>
   <stop stop-color="#457b24" offset=".0602"/>
   <stop stop-color="#558f2a" offset=".1153"/>
   <stop stop-color="#609c2d" offset=".1656"/>
   <stop stop-color="#67a52f" offset=".2094"/>
   <stop stop-color="#69a82f" offset=".2418"/>
   <stop stop-color="#c6d76b" offset=".8956"/>
  </linearGradient>
  <linearGradient id="p" x1="344.45" x2="381.3" gradientUnits="userSpaceOnUse">
   <stop stop-color="#9f834a" offset=".309"/>
   <stop stop-color="#b79764" offset=".6067"/>
   <stop stop-color="#af905b" offset=".7332"/>
   <stop stop-color="#9f834a" offset=".9066"/>
  </linearGradient>
  <linearGradient id="n" x2="0" y1="447.27" y2="367.48" gradientUnits="userSpaceOnUse">
   <stop stop-color="#196481" offset="0"/>
   <stop stop-color="#1a6583" offset=".0017"/>
   <stop stop-color="#2c83a8" offset=".0602"/>
   <stop stop-color="#3a99c4" offset=".1153"/>
   <stop stop-color="#44a8d7" offset=".1656"/>
   <stop stop-color="#4ab1e3" offset=".2094"/>
   <stop stop-color="#4cb4e7" offset=".2418"/>
   <stop stop-color="#bce4fa" offset=".8956"/>
  </linearGradient>
  <linearGradient id="m" x1="481.4" x2="518.25" gradientUnits="userSpaceOnUse">
   <stop stop-color="#9f834a" offset=".309"/>
   <stop stop-color="#b79764" offset=".6067"/>
   <stop stop-color="#af905b" offset=".7332"/>
   <stop stop-color="#9f834a" offset=".9066"/>
  </linearGradient>
  <linearGradient id="k" x2="0" y1="427.57" y2="474.13" gradientTransform="matrix(.7314 .1803 -.1721 .6981 99.673 72.75)" gradientUnits="userSpaceOnUse">
   <stop stop-color="#706045" offset=".0506"/>
   <stop stop-color="#473e2a" offset=".6011"/>
  </linearGradient>
  <linearGradient id="j" x2="0" y1="381.82" y2="428.38" gradientTransform="matrix(.7314 .1803 -.1721 .6981 99.673 72.75)" gradientUnits="userSpaceOnUse">
   <stop stop-color="#706045" offset=".0506"/>
   <stop stop-color="#473e2a" offset=".6011"/>
  </linearGradient>
  <linearGradient id="i" x2="0" y1="336.06" y2="382.62" gradientTransform="matrix(.7314 .1803 -.1721 .6981 99.673 72.75)" gradientUnits="userSpaceOnUse">
   <stop stop-color="#706045" offset=".0506"/>
   <stop stop-color="#473e2a" offset=".6011"/>
  </linearGradient>
  <linearGradient id="h" x2="0" y1="290.31" y2="336.87" gradientTransform="matrix(.7314 .1803 -.1721 .6981 99.673 72.75)" gradientUnits="userSpaceOnUse">
   <stop stop-color="#706045" offset=".0506"/>
   <stop stop-color="#473e2a" offset=".6011"/>
  </linearGradient>
  <radialGradient id="l" cx="1033.7" cy="12662" r="164.24" gradientTransform="matrix(.3959 0 0 .05 -320.2 -184.82)" gradientUnits="userSpaceOnUse">
   <stop stop-color="#706f6f" offset=".1044"/>
   <stop stop-color="#8a8989" offset=".2809"/>
   <stop stop-color="#a8a8a7" offset=".478"/>
   <stop stop-color="#fff" offset=".9157"/>
  </radialGradient>
  <radialGradient id="e" cx="1379.6" cy="12662" r="164.24" gradientTransform="matrix(.3959 0 0 .05 -320.2 -184.82)" gradientUnits="userSpaceOnUse">
   <stop stop-color="#706f6f" offset=".1044"/>
   <stop stop-color="#8a8989" offset=".2809"/>
   <stop stop-color="#a8a8a7" offset=".478"/>
   <stop stop-color="#fff" offset=".9157"/>
  </radialGradient>
  <radialGradient id="r" cx="1725.5" cy="12662" r="164.24" gradientTransform="matrix(.3959 0 0 .05 -320.2 -184.82)" gradientUnits="userSpaceOnUse">
   <stop stop-color="#706f6f" offset=".1044"/>
   <stop stop-color="#8a8989" offset=".2809"/>
   <stop stop-color="#a8a8a7" offset=".478"/>
   <stop stop-color="#fff" offset=".9157"/>
  </radialGradient>
  <radialGradient id="o" cx="2071.4" cy="12662" r="164.24" gradientTransform="matrix(.3959 0 0 .05 -320.2 -184.82)" gradientUnits="userSpaceOnUse">
   <stop stop-color="#706f6f" offset=".1044"/>
   <stop stop-color="#8a8989" offset=".2809"/>
   <stop stop-color="#a8a8a7" offset=".478"/>
   <stop stop-color="#fff" offset=".9157"/>
  </radialGradient>
 </defs>
 <path d="m154.09 448.28a65.044 8.207 0 1 0 -130.09 0 65.044 8.207 0 1 0 130.09 0" fill="url(#l)"/>
 <path d="m130.22 447.27h-82.496l-5.41-79.792h93.315z" fill="url(#g)"/>
 <path d="m109.087,347.979h-1.708c.006-.115.017-.228.017-.343v-6.758c0-3.178-2.575-5.75-5.75-5.75h-25.351c-3.178,0-5.751,2.573-5.751,5.75v6.758c0,.115.009.228.015.343h-1.706l-33.81,12.51v7.1h107.854v-7.1l-33.81-12.51zm-32.879-5.673c0-.926.752-1.677 1.678-1.677h22.168c.924,0 1.677.751 1.677,1.677v5.672h-25.523v-5.672z" fill="url(#b)"/>
 <path d="m101.65 335.13h-25.352c-3.178 0-5.751 2.573-5.751 5.75v6.52h2.591v-4.624c0-2.73 2.213-4.94 4.941-4.94h21.789c2.729 0 4.941 2.21 4.941 4.94v4.624h2.591v-6.52c0-3.177-2.575-5.75-5.75-5.75z" fill="url(#f)"/>
 <path d="m132.12 475.37-1.905-28.102h-82.496l-1.908 28.102" fill="url(#a)"/>
 <path d="m291.04 448.28a65.044 8.207 0 1 0 -130.09 0 65.044 8.207 0 1 0 130.09 0" fill="url(#e)"/>
 <path d="m267.17 447.27h-82.498l-5.41-79.792h93.317z" fill="url(#d)"/>
 <path d="m246.038,347.979h-1.707c.006-.115.017-.228.017-.343v-6.758c0-3.178-2.574-5.75-5.75-5.75h-25.352c-3.178,0-5.751,2.573-5.751,5.75v6.758c0,.115.008.228.015.343h-1.706l-33.81,12.51v7.1h107.854v-7.1l-33.81-12.51zm-32.879-5.673c0-.926.753-1.677 1.678-1.677h22.169c.924,0 1.676.751 1.676,1.677v5.672h-25.523v-5.672z" fill="url(#b)"/>
 <path d="m238.6 335.13h-25.352c-3.178 0-5.751 2.573-5.751 5.75v6.52h2.592v-4.624c0-2.73 2.211-4.94 4.939-4.94h21.789c2.728 0 4.941 2.21 4.941 4.94v4.624h2.59v-6.52c1e-3 -3.177-2.573-5.75-5.748-5.75z" fill="url(#c)"/>
 <path d="m269.08 475.37-1.905-28.102h-82.498l-1.906 28.102" fill="url(#a)"/>
 <path d="m428 448.28c0 4.531-29.125 8.207-65.045 8.207-35.926 0-65.042-3.676-65.042-8.207s29.117-8.213 65.042-8.213 65.045 3.683 65.045 8.213z" fill="url(#r)"/>
 <path d="m404.12 447.27h-82.496l-5.41-79.792h93.315z" fill="url(#q)"/>
 <path d="m382.988,347.979h-1.707c.006-.115.017-.228.017-.343v-6.758c0-3.178-2.574-5.75-5.749-5.75h-25.353c-3.178,0-5.75,2.573-5.75,5.75v6.758c0,.115.008.228.015.343h-1.705l-33.811,12.51v7.1h107.854v-7.1l-33.811-12.51zm-32.878-5.673c0-.926.752-1.677 1.677-1.677h22.169c.924,0 1.677.751 1.677,1.677v5.672h-25.523v-5.672z" fill="url(#b)"/>
 <path d="m375.55 335.13h-25.353c-3.178 0-5.75 2.573-5.75 5.75v6.52h2.59v-4.624c0-2.73 2.213-4.94 4.941-4.94h21.789c2.729 0 4.94 2.21 4.94 4.94v4.624h2.591v-6.52c1e-3 -3.177-2.573-5.75-5.748-5.75z" fill="url(#p)"/>
 <path d="m406.03 475.37-1.905-28.102h-82.496l-1.907 28.102" fill="url(#a)"/>
 <path d="m564.95 448.28a65.044 8.207 0 1 0 -130.09 0 65.044 8.207 0 1 0 130.09 0" fill="url(#o)"/>
 <path d="m541.07 447.27h-82.497l-5.409-79.792h93.314z" fill="url(#n)"/>
 <path d="m519.939,347.979h-1.707c.007-.115.017-.228.017-.343v-6.758c0-3.178-2.574-5.75-5.749-5.75h-25.353c-3.178,0-5.75,2.573-5.75,5.75v6.758c0,.115.008.228.015.343h-1.706l-33.811,12.51v7.1h107.855v-7.1l-33.811-12.51zm-32.877-5.673c0-.926.753-1.677 1.677-1.677h22.17c.923,0 1.676.751 1.676,1.677v5.672h-25.522v-5.672z" fill="url(#b)"/>
 <path d="m512.5 335.13h-25.353c-3.178 0-5.75 2.573-5.75 5.75v6.52h2.591v-4.624c0-2.73 2.211-4.94 4.94-4.94h21.789c2.729 0 4.94 2.21 4.94 4.94v4.624h2.591v-6.52c1e-3 -3.177-2.573-5.75-5.748-5.75z" fill="url(#m)"/>
 <path d="m542.98 475.37-1.906-28.102h-82.497l-1.906 28.102" fill="url(#a)"/>
 <path d="m86.162,388.659c-2.277.306-5.125,4.382-7.764,7.521-.035.04 5.63,3.858 5.63,3.858l6.721-7.891c0,0-1.124-3.953-4.587-3.488zm11.534,10.417 6.128-7.253-3.134,1.557c-.288-.931-1.188-3.651-2.017-4.218-1.003-.688-9.672-.465-9.672-.465s.285.035 1.509,1.528c1.056,1.285 1.981,5.871 2.218,7.118l-3.287,1.639 8.255.094zm-22.037,11.2c0,0-3.317,3.911-1.866,6.501 .953,1.703 5.529,1.119 9.194,1.012 .049-.002 1.914-7.693 1.914-7.693l-9.242.18zm4.215-5.559 2.474,1.57-2.322-7.092-8.501.201 2.358,1.505c-.777.94-3.029,3.742-3.311,4.873-.339,1.368 2.417,8.566 2.417,8.566s-.051-.269.965-2.424c.877-1.855 4.838-6.068 5.92-7.199zm22.522-6.887c-.013-.041-7.692,3.946-7.692,3.946l2.658,7.803c0,0 4.535-.002 6.557-3.127 1.328-2.051-.44-5.554-1.523-8.622zm-3.047,12.015c-1.965.6-6.956.272-8.304.167l.793-3.267-5.977,7.166 2.501,7.132 .758-3.114c1.087-.022 4.302-.135 5.428-.719 1.366-.704 7.317-8.301 7.317-8.301s-.237.24-2.516.936z" fill="url(#k)"/>
 <path d="m223.614,388.659c-2.277.306-5.126,4.382-7.764,7.521-.035.04 5.629,3.858 5.629,3.858l6.722-7.891c0,0-1.124-3.953-4.587-3.488zm11.534,10.417 6.128-7.253-3.134,1.557c-.288-.931-1.188-3.651-2.017-4.218-1.004-.688-9.672-.465-9.672-.465s.285.035 1.509,1.528c1.056,1.285 1.981,5.871 2.218,7.118l-3.287,1.639 8.255.094zm-22.038,11.2c0,0-3.316,3.911-1.865,6.501 .953,1.703 5.529,1.119 9.193,1.012 .049-.002 1.914-7.693 1.914-7.693l-9.242.18zm4.216-5.559 2.474,1.57-2.321-7.092-8.501.201 2.358,1.505c-.776.94-3.029,3.742-3.311,4.873-.339,1.368 2.417,8.566 2.417,8.566s-.051-.269.965-2.424c.876-1.855 4.838-6.068 5.919-7.199zm22.522-6.887c-.013-.041-7.692,3.946-7.692,3.946l2.657,7.803c0,0 4.535-.002 6.557-3.127 1.328-2.051-.44-5.554-1.522-8.622zm-3.048,12.015c-1.965.6-6.956.272-8.304.167l.793-3.267-5.977,7.166 2.501,7.132 .758-3.114c1.087-.022 4.302-.135 5.429-.719 1.365-.704 7.316-8.301 7.316-8.301s-.235.24-2.516.936z" fill="url(#j)"/>
 <path d="m361.065,388.659c-2.277.306-5.126,4.382-7.764,7.521-.035.04 5.629,3.858 5.629,3.858l6.722-7.891c0,0-1.124-3.953-4.587-3.488zm11.535,10.417 6.128-7.253-3.134,1.557c-.288-.931-1.188-3.651-2.017-4.218-1.004-.688-9.672-.465-9.672-.465s.285.035 1.509,1.528c1.056,1.285 1.981,5.871 2.218,7.118l-3.287,1.639 8.255.094zm-22.038,11.2c0,0-3.316,3.911-1.865,6.501 .953,1.703 5.529,1.119 9.193,1.012 .049-.002 1.914-7.693 1.914-7.693l-9.242.18zm4.215-5.559 2.474,1.57-2.321-7.092-8.501.201 2.358,1.505c-.776.94-3.029,3.742-3.311,4.873-.339,1.368 2.417,8.566 2.417,8.566s-.051-.269.965-2.424c.876-1.855 4.838-6.068 5.919-7.199zm22.523-6.887c-.013-.041-7.692,3.946-7.692,3.946l2.657,7.803c0,0 4.535-.002 6.557-3.127 1.327-2.051-.44-5.554-1.522-8.622zm-3.048,12.015c-1.965.6-6.956.272-8.304.167l.793-3.267-5.977,7.166 2.501,7.132 .758-3.114c1.087-.022 4.302-.135 5.429-.719 1.365-.704 7.316-8.301 7.316-8.301s-.236.24-2.516.936z" fill="url(#i)"/>
 <path d="m498.517,388.659c-2.277.306-5.126,4.382-7.764,7.521-.035.04 5.629,3.858 5.629,3.858l6.722-7.891c0,0-1.125-3.953-4.587-3.488zm11.534,10.417 6.128-7.253-3.134,1.557c-.288-.931-1.188-3.651-2.017-4.218-1.004-.688-9.672-.465-9.672-.465s.285.035 1.509,1.528c1.056,1.285 1.981,5.871 2.218,7.118l-3.287,1.639 8.255.094zm-22.038,11.2c0,0-3.316,3.911-1.865,6.501 .953,1.703 5.529,1.119 9.193,1.012 .049-.002 1.914-7.693 1.914-7.693l-9.242.18zm4.216-5.559 2.474,1.57-2.321-7.092-8.501.201 2.358,1.505c-.776.94-3.029,3.742-3.311,4.873-.339,1.368 2.417,8.566 2.417,8.566s-.051-.269.965-2.424c.876-1.855 4.837-6.068 5.919-7.199zm22.522-6.887c-.013-.041-7.692,3.946-7.692,3.946l2.657,7.803c0,0 4.535-.002 6.557-3.127 1.328-2.051-.44-5.554-1.522-8.622zm-3.048,12.015c-1.965.6-6.956.272-8.304.167l.793-3.267-5.977,7.166 2.501,7.132 .758-3.114c1.087-.022 4.302-.135 5.429-.719 1.365-.704 7.316-8.301 7.316-8.301s-.236.24-2.516.936z" fill="url(#h)"/>
</svg>
